<svg width="35" height="36" viewBox="0 0 35 36" fill="none" xmlns="http://www.w3.org/2000/svg">
<path fill-rule="evenodd" clip-rule="evenodd" d="M13.8592 13.0724C12.2662 14.5516 12.03 14.6149 9.15495 14.3295C7.48966 14.1641 5.4807 13.9688 4.69039 13.8955C2.74482 13.7149 2.19715 15.4542 2.64876 20.3791L2.9934 24.1329H7.06083C9.29806 24.1329 11.3481 23.9088 11.6165 23.6346C11.9374 23.3067 13.5418 23.4125 16.293 23.9426C19.8489 24.6281 21.2617 24.66 25.6534 24.1551C31.6798 23.4626 32.8361 22.9976 32.4255 21.4334C32.2676 20.8314 32.1349 20.1737 32.1314 19.9723C32.12 19.3551 29.5178 18.2017 27.2801 17.8218C25.9411 17.5941 23.5172 16.3602 20.7051 14.4737C18.2554 12.83 16.09 11.4919 15.8934 11.5C15.6968 11.5081 14.7812 12.2159 13.8592 13.0724ZM17.0774 13.2889C16.8441 13.9101 17.009 14.0068 17.8424 13.7366C18.6941 13.4604 18.8422 13.558 18.5897 14.2299C18.3629 14.8344 18.5139 15.0267 19.1339 14.9204C19.6266 14.8364 19.9366 15.0535 19.8608 15.4299C19.7885 15.7911 20.0524 16.0187 20.4476 15.9358C21.3518 15.7466 21.4612 16.0157 21.0364 17.3847C20.7229 18.3929 20.3936 18.4713 16.7917 18.3965C13.155 18.3206 12.7891 18.4106 11.4605 19.7062C10.2211 20.9158 9.63627 21.0975 6.98408 21.0975C4.37744 21.0975 3.85156 20.9406 3.36875 20.0184C2.86218 19.0516 3.04887 15.5174 3.65942 14.5076C3.77975 14.3083 5.22866 14.4641 6.87811 14.8536C10.3201 15.6656 13.06 15.186 14.5435 13.511C15.6379 12.2756 17.5201 12.1112 17.0774 13.2889ZM29.1172 19.1442C30.323 19.5226 31.3956 20.1044 31.5015 20.4368C32.0324 22.1067 20.7655 22.9303 14.647 21.6681C11.4011 20.9988 11.312 20.9406 12.1241 20.0239C12.8109 19.2489 13.6784 19.0739 16.8392 19.0739C20.3788 19.0739 20.7794 18.9697 21.4894 17.8622L22.2664 16.6511L24.5957 17.5531C25.8768 18.0494 27.9115 18.7653 29.1172 19.1442ZM15.3576 22.4184C19.6662 23.2663 26.7389 23.1398 30.0199 22.1563C31.6857 21.657 32.2938 22.2347 30.7627 22.8615C28.9028 23.6234 19.6028 23.7676 15.4017 23.0998C12.134 22.5803 11.0961 22.5631 10.9455 23.0249C10.8173 23.418 9.47583 23.627 7.07668 23.627C3.7342 23.627 3.40391 23.5359 3.40391 22.6152C3.40391 21.6889 3.7342 21.6034 7.3109 21.6034C9.45949 21.6034 13.0803 21.9701 15.3576 22.4184Z" fill="black"/>
</svg>
